<svg width="22" height="25" viewBox="0 0 22 25" fill="none" xmlns="http://www.w3.org/2000/svg">
<path fill-rule="evenodd" clip-rule="evenodd" d="M1.73684 0C1.2762 0 0.83443 0.179585 0.508709 0.499248C0.182988 0.818912 4.66503e-09 1.25247 4.66503e-09 1.70454V19.8863C-1.42124e-05 19.9962 0.0324679 20.1038 0.0935083 20.196C0.154549 20.2882 0.241526 20.361 0.343895 20.4056L10.7649 24.9511C10.8389 24.9833 10.919 25 11 25C11.081 25 11.1611 24.9833 11.2351 24.9511L21.6561 20.4056C21.7585 20.361 21.8455 20.2882 21.9065 20.196C21.9675 20.1038 22 19.9962 22 19.8863V1.70454C22 1.4807 21.9551 1.25905 21.8678 1.05224C21.7805 0.845437 21.6526 0.65753 21.4913 0.499248C21.33 0.340967 21.1385 0.215412 20.9278 0.12975C20.7171 0.0440892 20.4912 0 20.2632 0H1.73684ZM13.6053 13.3522H11.8684V3.69317H13.6053V13.3522ZM6.36842 19.8863L11 22.159L15.6316 19.8863H6.36842ZM6.36842 3.69317H3.18421V13.3522H6.36842V11.6477H4.92105V9.37497H6.36842V7.67043H4.92105V5.39771H6.36842V3.69317ZM9.26316 3.69317H7.23684V13.3522H8.97368V10.5113H9.26316C9.80057 10.5113 10.316 10.3018 10.696 9.92888C11.076 9.55594 11.2895 9.05012 11.2895 8.5227V5.6818C11.2895 5.15438 11.076 4.64857 10.696 4.27563C10.316 3.90269 9.80057 3.69317 9.26316 3.69317ZM9.26316 8.80679H8.97368V5.39771H9.26316C9.33993 5.39771 9.41356 5.42764 9.46785 5.48092C9.52213 5.5342 9.55263 5.60646 9.55263 5.6818V8.5227C9.55263 8.59805 9.52213 8.67031 9.46785 8.72359C9.41356 8.77686 9.33993 8.80679 9.26316 8.80679ZM14.1842 5.11362C14.1842 4.32953 14.8326 3.69317 15.6316 3.69317H17.3684C18.1674 3.69317 18.8158 4.32953 18.8158 5.11362V7.38634H17.0789V5.39771H15.9211V11.6477H17.0789V9.65906H18.8158V11.9318C18.8158 12.7159 18.1674 13.3522 17.3684 13.3522H15.6316C14.8326 13.3522 14.1842 12.7159 14.1842 11.9318V5.11362ZM3.47368 17.3295H17.3684V15.625H3.47368V17.3295Z" fill="white"/>
</svg>
