<svg width="60" height="60" viewBox="0 0 60 60" fill="none" xmlns="http://www.w3.org/2000/svg">
<path d="M60 30C60 46.5685 46.569 60 30.0012 60C13.4334 60 0 46.5709 0 30C0 13.4291 13.431 0 29.9988 0C46.5666 0 59.9976 13.4315 59.9976 30H60ZM56.923 30C56.923 15.0862 44.833 2.99808 29.9222 2.99808C15.0114 2.99808 2.92134 15.0862 2.92134 30C2.92134 44.9138 15.0114 57.0019 29.9222 57.0019C44.833 57.0019 56.923 44.9114 56.923 30Z" fill="url(#paint0_linear_1125_6200)"/>
<path d="M56.923 30C56.923 44.9138 44.833 57.0019 29.9222 57.0019C15.0114 57.0019 2.92134 44.9114 2.92134 30C2.92134 15.0886 15.009 2.99569 29.9222 2.99569C44.8354 2.99569 56.9231 15.0862 56.9231 29.9976L56.923 30ZM29.8528 44.8803C31.2344 46.183 36.8065 49.9042 38.5186 49.988C40.9203 50.1078 46.1141 45.4071 47.5772 43.5057C60.1629 27.1312 45.3215 4.88027 25.5737 8.33573L25.2146 8.80747C41.2364 13.2328 44.4643 36.3386 25.454 38.7476C26.5244 40.9986 28.0353 43.1681 29.8528 44.8803ZM34.3114 21.0201C33.4757 17.2605 24.6255 10.0431 21.2372 10.0192C18.0429 9.99761 11.6351 17.2294 10.2367 20.0551C1.94681 36.8199 16.3021 54.7701 34.3114 51.6739L27.4966 47.1169C17.0396 38.0819 19.9083 22.6245 34.3114 21.0225V21.0201Z" fill="#131119"/>
<path d="M29.8528 44.8803C28.0353 43.1681 26.5244 40.9986 25.454 38.7476C44.4643 36.3386 41.2364 13.2328 25.2146 8.80747L25.5737 8.33573C45.3215 4.88027 60.1629 27.1312 47.5772 43.5057C46.1165 45.4071 40.9227 50.1078 38.5186 49.988C36.8065 49.9042 31.2344 46.183 29.8528 44.8803Z" fill="url(#paint1_linear_1125_6200)"/>
<path d="M34.3114 21.0201C19.9106 22.6221 17.0419 38.0795 27.4965 47.1145L34.3114 51.6715C16.302 54.7677 1.94676 36.8175 10.2367 20.0527C11.6351 17.227 18.0429 9.99522 21.2372 10.0168C24.6255 10.0407 33.4757 17.2582 34.3114 21.0177L34.3114 21.0201Z" fill="url(#paint2_linear_1125_6200)"/>
<defs>
<linearGradient id="paint0_linear_1125_6200" x1="3.1129" y1="50.4071" x2="51.4844" y2="6.34771" gradientUnits="userSpaceOnUse">
<stop stop-color="#F10062"/>
<stop offset="0.576096" stop-color="#B52FFF"/>
<stop offset="1" stop-color="#00FFEA"/>
</linearGradient>
<linearGradient id="paint1_linear_1125_6200" x1="30" y1="0" x2="30" y2="60" gradientUnits="userSpaceOnUse">
<stop stop-color="#00FFEA"/>
<stop offset="1" stop-color="#5537FF"/>
</linearGradient>
<linearGradient id="paint2_linear_1125_6200" x1="21.0698" y1="10.0167" x2="21.0698" y2="52.0225" gradientUnits="userSpaceOnUse">
<stop stop-color="#FD0067"/>
<stop offset="1" stop-color="#A400FF"/>
</linearGradient>
</defs>
</svg>
