<svg width="30" height="23" viewBox="0 0 30 23" fill="none" xmlns="http://www.w3.org/2000/svg">
<path fill-rule="evenodd" clip-rule="evenodd" d="M29.7334 17.6032C29.1472 18.3377 27.7115 18.8614 27.7115 18.8614L17.031 22.6722V19.862L24.8911 17.0801C25.7831 16.7625 25.92 16.3139 25.195 16.0782C24.4714 15.8419 23.1609 15.9096 22.2684 16.2285L17.031 18.0608V15.1441L17.3329 15.0427C17.3329 15.0427 18.8463 14.5107 20.9744 14.2765C23.1025 14.0437 25.7081 14.3082 27.7537 15.0785C30.059 15.8022 30.3185 16.8688 29.7332 17.6032H29.7334ZM18.0478 12.8178V5.6308C18.0478 4.78678 17.891 4.00987 17.0937 3.78984C16.4831 3.59554 16.1043 4.15857 16.1043 5.002V23L11.2179 21.4594V0C13.2955 0.383032 16.3225 1.28876 17.9496 1.83359C22.0878 3.24486 23.4908 5.00139 23.4908 8.95904C23.4908 12.8165 21.0937 14.2785 18.0478 12.8178ZM2.25189 19.5682C-0.114772 18.9061 -0.508559 17.5268 0.570076 16.7321C1.56704 15.9984 3.2625 15.4461 3.2625 15.4461L10.2687 12.9715V15.7927L5.22689 17.5849C4.33628 17.9023 4.19931 18.3517 4.9231 18.5872C5.64734 18.8228 6.9584 18.7558 7.85037 18.4376L10.2687 17.5659V20.0899C10.1154 20.1169 9.94445 20.144 9.78627 20.1704C7.36719 20.563 4.79083 20.3991 2.25189 19.5681V19.5682ZM28.1768 20.6857C28.4829 20.6857 28.7697 20.8034 28.9858 21.0207C29.0924 21.1258 29.1769 21.2509 29.2344 21.3887C29.2919 21.5265 29.3214 21.6743 29.3209 21.8235C29.3215 21.9727 29.2921 22.1205 29.2346 22.2584C29.177 22.3962 29.0925 22.5213 28.9858 22.6263C28.8801 22.7325 28.7541 22.8168 28.6152 22.8741C28.4763 22.9314 28.3272 22.9606 28.1768 22.96C28.0265 22.9605 27.8775 22.9312 27.7387 22.874C27.5998 22.8167 27.4738 22.7325 27.3681 22.6263C27.2615 22.5212 27.177 22.3961 27.1195 22.2583C27.0621 22.1205 27.0329 21.9727 27.0335 21.8235C27.0335 21.1967 27.5459 20.6857 28.1768 20.6857ZM27.2256 21.8235C27.2256 22.0759 27.3244 22.3136 27.5044 22.4908C27.5923 22.5792 27.697 22.6493 27.8125 22.697C27.9279 22.7446 28.0518 22.7689 28.1768 22.7684C28.4291 22.7683 28.671 22.6687 28.8494 22.4916C29.0278 22.3144 29.1281 22.0741 29.1282 21.8235C29.1282 21.5704 29.03 21.3329 28.8494 21.1547C28.7615 21.0664 28.6567 20.9964 28.5413 20.9489C28.4258 20.9013 28.3019 20.8772 28.1768 20.8779C28.0518 20.8772 27.9279 20.9014 27.8124 20.9489C27.6969 20.9965 27.5922 21.0665 27.5043 21.1548C27.4155 21.2424 27.3452 21.3466 27.2974 21.4614C27.2495 21.5762 27.2251 21.6993 27.2256 21.8235ZM28.5223 21.211C28.6478 21.2657 28.7111 21.3714 28.7111 21.5216C28.7111 21.5988 28.6947 21.6637 28.6614 21.7145C28.6375 21.7511 28.6035 21.7808 28.5653 21.8065C28.5953 21.8241 28.6218 21.8452 28.6415 21.8696C28.6688 21.9046 28.6846 21.9609 28.6865 22.0374L28.6926 22.1992C28.6947 22.2425 28.6975 22.2756 28.7043 22.2959C28.7111 22.3257 28.724 22.3447 28.7405 22.3507L28.7575 22.3589V22.4326H28.5108L28.5026 22.4185C28.4952 22.4027 28.4897 22.3861 28.4862 22.3691C28.4812 22.3364 28.4782 22.3033 28.4775 22.2702L28.4672 22.0691C28.4644 21.9994 28.4406 21.9563 28.3956 21.9331C28.3676 21.9203 28.3214 21.9143 28.2587 21.9143H27.9117V22.4326H27.6903V21.1676H28.2819C28.3785 21.1676 28.4597 21.1818 28.5223 21.211ZM27.9117 21.7206H28.2647C28.3356 21.7206 28.3922 21.7078 28.4325 21.6814C28.4693 21.6549 28.487 21.6069 28.487 21.5371C28.487 21.4614 28.4617 21.4119 28.4085 21.3855C28.3793 21.3714 28.3384 21.3633 28.2865 21.3633H27.9118V21.7206H27.9117Z" fill="white"/>
</svg>
