<svg width="24" height="24" viewBox="0 0 24 24" fill="none" xmlns="http://www.w3.org/2000/svg">
<path d="M12.0315 1.83773e-05C9.01277 -0.00523694 6.1019 1.11682 3.87418 3.14442C1.64647 5.17202 0.263995 7.95763 0 10.9507L6.2762 13.5994C6.98568 13.1005 7.85443 12.8782 8.71764 12.9747L11.5859 8.73308C11.6469 7.88823 11.9531 7.07922 12.4674 6.40433C12.9816 5.72944 13.6817 5.21773 14.4826 4.93137C15.2835 4.64501 16.1508 4.59634 16.9789 4.79127C17.8071 4.98619 18.5606 5.41632 19.1478 6.02939C19.735 6.64246 20.1307 7.41209 20.2867 8.24475C20.4428 9.07741 20.3525 9.93726 20.0269 10.7198C19.7013 11.5024 19.1543 12.174 18.4525 12.653C17.7506 13.132 16.9241 13.3979 16.0733 13.4182L11.8934 16.1106C11.9028 16.2416 11.9028 16.3731 11.8934 16.5041C11.8929 17.4086 11.5455 18.2787 10.922 18.9367C10.2986 19.5947 9.44625 19.9909 8.53915 20.0443C7.63204 20.0978 6.73868 19.8044 6.04161 19.2242C5.34454 18.644 4.89639 17.8207 4.78874 16.9227L0.282429 15.0486C0.853837 17.2137 2.02232 19.1766 3.6558 20.7154C5.28929 22.2542 7.32265 23.3075 9.52608 23.7563C11.7295 24.2052 14.0151 24.0316 16.1246 23.2553C18.2342 22.4789 20.0834 21.1308 21.4635 19.3631C22.8435 17.5955 23.6993 15.4789 23.9341 13.2526C24.1689 11.0263 23.7734 8.77895 22.7922 6.76464C21.811 4.75033 20.2833 3.04935 18.3817 1.85394C16.4801 0.658538 14.2805 0.0163695 12.0315 1.83773e-05Z" fill="white"/>
<path d="M15.9729 12.0002C16.5616 12.0014 17.1374 11.8288 17.6274 11.5042C18.1175 11.1796 18.4997 10.7176 18.7259 10.1766C18.952 9.63569 19.0118 9.04014 18.8977 8.46535C18.7836 7.89056 18.5008 7.36238 18.085 6.94765C17.6692 6.53292 17.1391 6.2503 16.5619 6.13554C15.9846 6.02078 15.3862 6.07905 14.8422 6.30298C14.2982 6.5269 13.8333 6.90642 13.5061 7.39349C13.1789 7.88055 13.0043 8.45328 13.0043 9.03917C13.0043 9.8234 13.3169 10.5756 13.8734 11.1307C14.4299 11.6858 15.185 11.9985 15.9729 12.0002ZM15.9729 6.74659C16.4285 6.74659 16.8738 6.88105 17.2526 7.13296C17.6314 7.38487 17.9266 7.74292 18.101 8.16184C18.2753 8.58075 18.3209 9.04172 18.232 9.48643C18.1432 9.93115 17.9238 10.3397 17.6017 10.6603C17.2795 10.9809 16.8691 11.1992 16.4223 11.2877C15.9755 11.3762 15.5124 11.3308 15.0915 11.1572C14.6706 10.9837 14.3108 10.6899 14.0578 10.3129C13.8047 9.93585 13.6696 9.4926 13.6696 9.03917C13.6696 8.43114 13.9122 7.84801 14.3442 7.41807C14.7762 6.98813 15.362 6.74659 15.9729 6.74659ZM8.37873 13.8742H8.11513C7.86542 13.902 7.62057 13.963 7.38709 14.0554L7.8578 14.2553L8.76785 14.6363C8.98687 14.7284 9.18548 14.8625 9.35233 15.0311C9.51918 15.1997 9.65097 15.3993 9.74017 15.6187C9.82937 15.838 9.87422 16.0727 9.87215 16.3094C9.87008 16.546 9.82113 16.7799 9.72811 16.9976C9.63456 17.2224 9.49542 17.4255 9.31939 17.5942C9.14336 17.763 8.93423 17.8938 8.70509 17.9784C8.27242 18.1531 7.78838 18.1531 7.35571 17.9784L5.92473 17.3537C6.12227 17.9223 6.51101 18.4055 7.02523 18.7218C7.53945 19.038 8.14761 19.1678 8.74688 19.0892C9.34615 19.0106 9.89977 18.7284 10.3141 18.2904C10.7285 17.8524 10.9782 17.2854 11.021 16.6853V16.4854C11.0177 15.7906 10.7376 15.1256 10.2423 14.636C9.74695 14.1465 9.07676 13.8726 8.37873 13.8742Z" fill="white"/>
</svg>
