<svg width="24" height="24" viewBox="0 0 24 24" fill="none" xmlns="http://www.w3.org/2000/svg">
<path d="M10.8033 23.9507C8.95451 23.7737 7.08281 23.1102 5.47499 22.0616C4.1277 21.1835 3.82365 20.8219 3.82365 20.1012C3.82365 18.6535 5.41641 16.1173 8.14168 13.2269C9.68897 11.5848 11.8446 9.66118 12.0776 9.71304C12.5311 9.81423 16.1546 13.3467 17.5113 15.01C19.6564 17.639 20.6422 19.7923 20.1412 20.7522C19.7605 21.4818 17.3973 22.908 15.6614 23.4559C14.2304 23.9075 12.3512 24.0987 10.8033 23.9507ZM2.00383 18.596C0.884161 16.8793 0.318466 15.1893 0.0456605 12.7448C-0.0447167 11.9378 -0.0129173 11.4764 0.250125 9.81925C0.577324 7.75623 1.75362 5.36702 3.16786 3.89781C3.76982 3.27333 3.82337 3.2566 4.55755 3.50472C5.44738 3.80581 6.39857 4.46263 7.87417 5.79635L8.7361 6.57528L8.26469 7.15237C6.08113 9.83152 3.77651 13.6314 2.909 15.9816C2.43759 17.2584 2.24791 18.5408 2.45154 19.0747C2.58822 19.4355 2.46269 19.3011 2.00244 18.5969L2.00383 18.596ZM21.6561 18.8879C21.7669 18.3482 21.6269 17.3574 21.2991 16.3577C20.5892 14.1929 18.2157 10.1658 16.0363 7.42754L15.3501 6.56553L16.0926 5.88445C17.0617 4.99512 17.7345 4.46263 18.4609 4.01016C19.0335 3.65331 19.8522 3.33745 20.2043 3.33745C20.421 3.33745 21.185 4.13199 21.8015 4.99623C22.7566 6.33441 23.4589 7.95974 23.8149 9.64919C24.045 10.742 24.0643 13.0783 23.852 14.1683C23.6762 15.0627 23.308 16.2219 22.951 17.0083C22.6804 17.5974 22.0137 18.7418 21.7209 19.1143C21.5702 19.3058 21.5702 19.3055 21.6539 18.8924L21.6561 18.8879ZM11.0014 2.92875C9.99553 2.41856 8.44405 1.87075 7.58714 1.72299C7.287 1.67141 6.77458 1.64214 6.44906 1.65887C5.74166 1.69455 5.77318 1.65775 6.90736 1.1222C7.85018 0.67698 8.6368 0.415199 9.70515 0.191054C10.906 -0.0612486 13.164 -0.0640365 14.3459 0.184921C15.6221 0.45395 17.1253 1.01292 17.9722 1.53425L18.2243 1.6887L17.6469 1.65971C16.4988 1.60172 14.8257 2.06534 13.0293 2.9385C12.4876 3.20224 12.0167 3.41244 11.9822 3.40687C11.9478 3.40017 11.5063 3.18523 11.0003 2.92875H11.0014Z" fill="white"/>
</svg>
